mtllib Gem.mtl
# Vertex Positions: 
g groupNumber_0
v -1.30259 -2.01929 -1.85758
v 0 -1.4622 -1.85758
v -1.30259 2.01929 -1.85758
v 0 1.4622 -1.85758
v 0 -3.26362 -1.85758
v 1.30259 -2.01929 -1.85758
v 0 3.26362 -1.85758
v 1.30259 2.01929 -1.85758
v -1.30259 -2.01929 1.85758
v 0 -1.4622 1.85758
v -1.30259 2.01929 1.85758
v 0 1.4622 1.85758
v 0 -3.26362 1.85758
v 1.30259 -2.01929 1.85758
v 0 3.26362 1.85758
v 1.30259 2.01929 1.85758
v -2.77147 2.6475 -0.0008825
v -2.77147 -2.6475 -0.0008825
v 0 -5.295 -0.0008825
v 2.77147 -2.6475 -0.0008825
v 2.77147 2.6475 -0.0008825
v 0 5.295 -0.0008825
v -2.77147 2.6475 0.0008825
v -2.77147 -2.6475 0.0008825
v 0 -5.295 0.0008825
v 2.77147 -2.6475 0.0008825
v 2.77147 2.6475 0.0008825
v 0 5.295 0.0008825
v -2.77147 1.66109e-07 -3.25261e-19
v -1.38574 -3.97125 -3.25261e-19
v 1.38574 -3.97125 -3.25261e-19
v 2.77147 1.66109e-07 -3.25261e-19
v 1.38574 3.97125 -3.25261e-19
v -1.38574 3.97125 -3.25261e-19


# Vertex Texture Coordinates :
vt 1.13359e-05 0.708168
vt 1.13359e-05 0.236056
vt 0.247121 0
vt 0.13098 0.292068
vt 0.247121 0.341739
vt 0.13098 0.652156
vt 0.247121 0.602485
vt 0.247121 0.944225
vt 0.247121 0.181122
vt 0.494231 0.236056
vt 0.363263 0.292068
vt 0.247121 0.763103
vt 0.363263 0.652156
vt 0.494231 0.708168
vt 1 0.708168
vt 1 0.236056
vt 0.75289 0
vt 0.869032 0.292068
vt 0.75289 0.341739
vt 0.869032 0.652156
vt 0.75289 0.602485
vt 0.75289 0.944225
vt 0.75289 0.181122
vt 0.50578 0.236056
vt 0.636748 0.292068
vt 0.75289 0.763103
vt 0.636748 0.652156
vt 0.50578 0.708168
vt 0 0.955787
vt 0.472112 0.955787
vt 6.35222e-05 0.967544
vt 0.341803 0.967544
vt 6.35222e-05 0.979301
vt 0.341803 0.979301
vt 0 0.991057
vt 0.472112 0.991057
vt 0.505832 0.955787
vt 0.847572 0.955787
vt 0.505832 0.967544
vt 0.847572 0.967544
vt 0 0.955945
vt 0.472112 0.955945
vt 6.35222e-05 0.967701
vt 0.341803 0.967701
vt 6.35222e-05 0.979458
vt 0.341803 0.979458
vt 0 0.991215
vt 0.472112 0.991215
vt 0.505832 0.955945
vt 0.847572 0.955945
vt 0.505832 0.967701
vt 0.847572 0.967701
vt 0.236056 0.955866
vt 0.170933 0.967623
vt 0.170933 0.979379
vt 0.236056 0.991136
vt 0.676702 0.955866
vt 0.676702 0.967623


# Vertex Surface Normals: 
vn 0.541919 0.567295 0.62008
vn 0.541919 0.567295 0.62008
vn 0.541919 0.567295 0.62008
vn -0.541919 0.567295 0.62008
vn -0.541919 0.567295 0.62008
vn -0.541919 0.567295 0.62008
vn 0.541919 0.567295 0.62008
vn 0.784538 -1.09775e-08 0.62008
vn 0.784538 -4.38959e-09 0.62008
vn 0.784538 -1.71022e-08 0.62008
vn 0.784538 0 0.62008
vn 0 0 1
vn 0 0 1
vn 0 0 1
vn 0 0 1
vn 0 0 1
vn 0.541919 -0.567296 0.62008
vn 0.541919 -0.567296 0.62008
vn 0.541919 -0.567296 0.62008
vn 0 0 1
vn 0 0 1
vn -0.541919 0.567295 0.62008
vn -0.784538 -1.09775e-08 0.62008
vn -0.784538 -4.38959e-09 0.62008
vn -0.784538 0 0.62008
vn 0.541919 -0.567296 0.62008
vn -0.541919 -0.567296 0.62008
vn -0.541919 -0.567296 0.62008
vn -0.541919 -0.567296 0.62008
vn -0.541919 -0.567296 0.62008
vn -0.784538 -1.71022e-08 0.62008
vn 0 0 1
vn 0.541919 0.567295 -0.62008
vn 0.541919 0.567295 -0.62008
vn 0.541919 0.567295 -0.62008
vn -0.541919 0.567295 -0.62008
vn -0.541919 0.567295 -0.62008
vn -0.541919 0.567295 -0.62008
vn 0.541919 0.567295 -0.62008
vn 0.784538 -4.38959e-09 -0.62008
vn 0.784538 -1.09775e-08 -0.62008
vn 0.784538 -1.71022e-08 -0.62008
vn 0.784538 0 -0.62008
vn 0 0 -1
vn 0 0 -1
vn 0 0 -1
vn 0 0 -1
vn 0 0 -1
vn 0.541919 -0.567296 -0.62008
vn 0.541919 -0.567296 -0.62008
vn 0.541919 -0.567296 -0.62008
vn 0 0 -1
vn 0 0 -1
vn -0.541919 0.567295 -0.62008
vn -0.784538 -4.38959e-09 -0.62008
vn -0.784538 -1.09775e-08 -0.62008
vn -0.784538 0 -0.62008
vn 0.541919 -0.567296 -0.62008
vn -0.541919 -0.567296 -0.62008
vn -0.541919 -0.567296 -0.62008
vn -0.541919 -0.567296 -0.62008
vn -0.541919 -0.567296 -0.62008
vn -0.784538 -1.71022e-08 -0.62008
vn 0 0 -1
vn -1 0 0
vn -1 0 0
vn -1 0 0
vn -1 0 0
vn -1 0 0
vn -0.690749 -0.723095 0
vn -0.690749 -0.723095 0
vn -0.690749 -0.723095 0
vn -0.690749 -0.723095 0
vn -0.690749 -0.723095 0
vn 0.690749 -0.723095 0
vn 0.690749 -0.723095 0
vn 0.690749 -0.723095 0
vn 0.690749 -0.723095 0
vn 0.690749 -0.723095 0
vn 1 0 0
vn 1 0 0
vn 1 0 0
vn 1 0 0
vn 1 0 0
vn 0.690749 0.723095 0
vn 0.690749 0.723095 3.73666e-17
vn 0.690749 0.723095 3.73666e-17
vn 0.690749 0.723095 -3.73666e-17
vn 0.690749 0.723095 -3.73666e-17
vn -0.690749 0.723095 0
vn -0.690749 0.723095 3.73666e-17
vn -0.690749 0.723095 3.73666e-17
vn -0.690749 0.723095 -3.73666e-17
vn -0.690749 0.723095 -3.73666e-17


# Faces: 
usemtl material0
f 24/2/1 25/3/2 5/9/3
f 5/9/4 25/3/5 26/10/6
f 24/2/1 5/9/3 1/4/7
f 23/1/8 1/4/9 3/6/10
f 1/4/9 23/1/8 24/2/11
f 3/6/12 2/5/13 4/7/14
f 2/5/13 3/6/12 1/4/15
f 1/4/15 5/9/16 2/5/13
f 23/1/17 3/6/18 7/12/19
f 5/9/16 6/11/20 2/5/13
f 4/7/14 2/5/13 8/13/21
f 8/13/21 2/5/13 6/11/20
f 26/10/6 6/11/22 5/9/4
f 27/14/23 6/11/24 26/10/25
f 7/12/19 28/8/26 23/1/17
f 28/8/27 7/12/28 27/14/29
f 8/13/30 27/14/29 7/12/28
f 27/14/23 8/13/31 6/11/24
f 7/12/32 4/7/14 8/13/21
f 4/7/14 7/12/32 3/6/12
f 19/17/33 18/16/34 13/23/35
f 19/17/36 13/23/37 20/24/38
f 13/23/35 18/16/34 9/18/39
f 9/18/40 17/15/41 11/20/42
f 17/15/41 9/18/40 18/16/43
f 10/19/44 11/20/45 12/21/46
f 11/20/45 10/19/44 9/18/47
f 13/23/48 9/18/47 10/19/44
f 11/20/49 17/15/50 15/26/51
f 14/25/52 13/23/48 10/19/44
f 10/19/44 12/21/46 16/27/53
f 10/19/44 16/27/53 14/25/52
f 14/25/54 20/24/38 13/23/37
f 14/25/55 21/28/56 20/24/57
f 22/22/58 15/26/51 17/15/50
f 15/26/59 22/22/60 21/28/61
f 21/28/61 16/27/62 15/26/59
f 16/27/63 21/28/56 14/25/55
f 12/21/46 15/26/64 16/27/53
f 15/26/64 12/21/46 11/20/45
f 29/53/65 17/29/66 18/30/67
f 29/53/65 18/30/67 24/42/68
f 29/53/65 24/42/68 23/41/69
f 29/53/65 23/41/69 17/29/66
f 30/54/70 18/31/71 19/32/72
f 30/54/70 19/32/72 25/44/73
f 30/54/70 25/44/73 24/43/74
f 30/54/70 24/43/74 18/31/71
f 31/55/75 19/33/76 20/34/77
f 31/55/75 20/34/77 26/46/78
f 31/55/75 26/46/78 25/45/79
f 31/55/75 25/45/79 19/33/76
f 32/56/80 20/35/81 21/36/82
f 32/56/80 21/36/82 27/48/83
f 32/56/80 27/48/83 26/47/84
f 32/56/80 26/47/84 20/35/81
f 33/57/85 21/37/86 22/38/87
f 33/57/85 22/38/87 28/50/88
f 33/57/85 28/50/88 27/49/89
f 33/57/85 27/49/89 21/37/86
f 34/58/90 22/39/91 17/40/92
f 34/58/90 17/40/92 23/52/93
f 34/58/90 23/52/93 28/51/94
f 34/58/90 28/51/94 22/39/91
